<svg id="Layer_1" data-name="Layer 1" xmlns="http://www.w3.org/2000/svg" viewBox="0 0 159.45 159.45"><defs><style>.cls-1{fill:none;stroke:#fff;stroke-miterlimit:10;stroke-width:0.7px;}</style></defs><title>hexagon-path</title><path class="cls-1" d="M79.73.35a15.94,15.94,0,0,1,6,1.2l44.89,18.53a16,16,0,0,1,8.63,8.61l18.63,44.84a16,16,0,0,1,0,12.19l-18.54,44.89a16,16,0,0,1-8.61,8.63L85.91,157.88a16,16,0,0,1-12.2,0L28.83,139.36a16,16,0,0,1-8.63-8.61L1.56,85.91a16,16,0,0,1,0-12.19L20.08,28.83a16,16,0,0,1,8.61-8.63L73.54,1.56A16,16,0,0,1,79.67.35h.06"/></svg>